# Blender v2.79 (sub 0) OBJ File: 'Tree_LOD_3.blend'
# www.blender.org
mtllib Tree_LOD_Three.mtl
o _8_tree_Cube.007
v 0.275888 0.248259 -0.276472
v -0.004925 0.233139 -0.397623
v -0.085111 0.242062 -0.454505
v -0.364425 0.274548 -0.303836
v -0.358942 0.249006 0.123348
v -0.385731 0.295059 0.301488
v 0.273387 0.244573 0.438077
v 0.448143 0.248413 -0.164640
v 0.214542 0.246167 -0.424543
v -0.028399 0.384064 -0.295253
v -0.099575 0.543063 -0.163506
v 0.131246 0.410032 0.291199
v -0.206994 0.262418 -0.330156
v -0.349954 0.220952 -0.312814
v -0.370576 0.232502 0.293120
v -0.192454 0.223549 0.333666
v 0.330463 0.237295 0.205146
v -0.176705 0.238100 -0.057078
v -0.466998 0.236647 -0.018631
v 0.475021 0.233701 0.079064
v -0.300996 0.369714 0.196848
v -0.090613 0.247743 0.444457
v -0.123476 0.305110 0.372759
v 0.045295 0.227420 0.393901
v -0.443902 0.301735 -0.010013
v 0.105229 0.546843 -0.142255
v -0.162830 0.535538 -0.014791
v -0.099968 0.542401 0.156096
v 0.125157 0.542349 0.127387
v 0.448111 0.564201 0.020030
v 0.207868 0.563349 -0.394487
v -0.341511 0.561299 -0.048238
v -0.429567 0.561169 0.120796
v 0.053087 0.566115 -0.337896
v -0.058472 0.568415 0.352878
v 0.338625 0.569857 -0.104659
v 0.348065 0.548947 -0.257536
v -0.103857 0.562566 -0.428551
v -0.301413 0.545205 -0.343826
v -0.419034 0.560326 -0.164650
v -0.213539 0.550703 0.401598
v 0.232896 0.570412 0.368011
v 0.400026 0.571571 0.165486
v 0.242491 0.747127 0.079926
v 0.053853 0.880194 -0.095755
v -0.135952 0.759200 -0.169064
v -0.321744 0.694167 -0.060409
v -0.132404 0.750367 0.149407
v -0.063010 0.684775 0.350500
v 0.348445 0.652380 -0.113569
v -0.362837 0.616672 0.268513
v 0.050689 0.655191 -0.350413
v 0.129968 0.579937 0.416548
v 0.309280 0.592132 0.210416
v 0.131497 0.879835 -0.034107
v -0.093831 0.886517 -0.101039
v -0.123502 0.887889 0.071048
v 0.079630 0.880901 0.144568
v 0.257517 0.912646 0.030056
v -0.231678 0.906808 -0.106758
v -0.184319 0.917401 0.180864
v 0.213132 0.921947 -0.153961
v 0.139428 0.924599 -0.328736
v -0.043494 0.927779 -0.265245
v -0.350382 0.925787 -0.031453
v -0.356781 0.922298 0.098103
v -0.043710 0.914063 0.377527
v 0.308749 0.929344 0.198262
v 0.121238 1.195073 0.029913
v 0.020739 1.192650 -0.104678
v -0.060807 1.191601 0.102604
v 0.231943 0.920997 0.273558
v 0.090287 0.930898 0.242836
v -0.192739 0.953868 -0.239621
v -0.114609 1.198186 -0.009133
v 0.230625 1.018194 0.044528
v 0.295389 0.943902 -0.089771
v -0.246778 1.018034 -0.037921
v -0.116692 1.025716 0.236650
v -0.165978 0.926405 0.326701
v 0.137537 1.233557 -0.251791
v 0.202651 1.222434 0.104728
v -0.198945 1.222552 0.135541
v -0.170808 1.235576 -0.157486
v -0.316316 1.225403 -0.022820
v -0.132740 1.215155 0.297296
v 0.212454 1.207233 0.255604
v -0.006560 1.477005 -0.112926
v 0.087011 1.408474 -0.136248
v -0.088049 1.406152 0.163296
v 0.008735 1.241864 0.216027
v -0.132906 1.228956 -0.236745
v 0.186612 1.290174 0.179004
v 0.288699 1.234673 0.050845
v -0.014127 1.571099 0.077616
v -0.236181 1.575823 -0.042738
v 0.095044 1.602258 -0.179056
v -0.014913 1.569974 -0.046552
v 0.071046 1.573162 0.012090
v -0.082844 1.558273 -0.017328
v 0.247766 1.573637 0.017186
v -0.119291 1.618072 0.147811
v -0.005034 2.033368 0.016195
v 0.016338 1.773358 0.117246
v -0.024145 1.621613 -0.179598
v 0.034345 1.578027 0.249142
v 0.203052 1.623637 0.044215
v -0.035993 -0.004578 0.019012
v -0.061218 0.244870 -0.026879
v 0.030137 -0.005123 -0.027716
v 0.032026 -0.007673 0.044081
v -0.056118 0.231394 0.051969
v 0.042334 0.235252 -0.002416
vt 0.313933 0.485182
vt 0.272622 0.514557
vt 0.292355 0.426369
vt 0.170274 0.165467
vt 0.172691 0.187015
vt 0.041965 0.175645
vt 0.267801 0.103129
vt 0.129263 0.041670
vt 0.181727 0.058229
vt 0.071894 0.081795
vt 0.146491 0.391387
vt 0.176989 0.422352
vt 0.106034 0.504197
vt 0.028960 0.634620
vt 0.158553 0.663573
vt 0.048111 0.670533
vt 0.800546 0.891115
vt 0.800546 0.948398
vt 0.781326 0.900716
vt 0.342185 0.206168
vt 0.361416 0.161242
vt 0.372367 0.251714
vt 0.465793 0.219640
vt 0.457695 0.271410
vt 0.430746 0.200859
vt 0.510739 0.190501
vt 0.509562 0.287150
vt 0.426509 0.064262
vt 0.498569 0.126772
vt 0.426630 0.144271
vt 0.608782 0.370003
vt 0.642049 0.434977
vt 0.571370 0.400811
vt 0.570768 0.710965
vt 0.630551 0.656538
vt 0.679426 0.727796
vt 0.539836 0.680051
vt 0.522804 0.580757
vt 0.568235 0.639743
vt 0.689573 0.459279
vt 0.644791 0.519700
vt 0.478255 0.407897
vt 0.525163 0.424681
vt 0.478390 0.452544
vt 0.487515 0.497132
vt 0.407728 0.451644
vt 0.456141 0.473429
vt 0.432589 0.513742
vt 0.378580 0.464590
vt 0.779071 0.619527
vt 0.713004 0.634155
vt 0.740221 0.587446
vt 0.324140 0.769407
vt 0.324140 0.814877
vt 0.314637 0.813349
vt 0.707266 0.665339
vt 0.792672 0.688667
vt 0.794987 0.718501
vt 0.774859 0.825078
vt 0.708904 0.814193
vt 0.773689 0.785093
vt 0.803199 0.577001
vt 0.438071 0.588457
vt 0.445527 0.631620
vt 0.395067 0.635046
vt 0.398957 0.672652
vt 0.349541 0.695260
vt 0.341952 0.596315
vt 0.660764 0.928260
vt 0.676873 0.878556
vt 0.689390 0.907912
vt 0.854365 0.866620
vt 0.833886 0.842501
vt 0.848077 0.790000
vt 0.971314 0.764521
vt 0.954532 0.841521
vt 0.912546 0.837927
vt 0.867659 0.172319
vt 0.938020 0.232779
vt 0.860170 0.230690
vt 0.827650 0.424730
vt 0.836412 0.368130
vt 0.871739 0.398087
vt 0.637257 0.810545
vt 0.589700 0.834354
vt 0.602925 0.802139
vt 0.794289 0.076969
vt 0.815342 0.209703
vt 0.782492 0.153094
vt 0.733551 0.436803
vt 0.800979 0.381039
vt 0.773591 0.485004
vt 0.769619 0.217126
vt 0.275886 0.366458
vt 0.212116 0.422854
vt 0.148918 0.509360
vt 0.978246 0.259623
vt 0.959237 0.175073
vt 0.977974 0.167032
vt 0.143735 0.308878
vt 0.125562 0.277835
vt 0.187180 0.233167
vt 0.072455 0.229076
vt 0.726836 0.895716
vt 0.750689 0.892889
vt 0.751070 0.925867
vt 0.302459 0.789203
vt 0.302859 0.849949
vt 0.255933 0.846283
vt 0.297352 0.354244
vt 0.105419 0.708205
vt 0.048879 0.566175
vt 0.163150 0.604722
vt 0.569912 0.170802
vt 0.586247 0.217570
vt 0.516131 0.070418
vt 0.501537 0.044309
vt 0.566675 0.089369
vt 0.588334 0.123320
vt 0.456643 0.036496
vt 0.569068 0.446126
vt 0.648991 0.079155
vt 0.712343 0.033309
vt 0.668040 0.091627
vt 0.281557 0.619171
vt 0.288414 0.663092
vt 0.206819 0.647003
vt 0.695535 0.412303
vt 0.601252 0.575077
vt 0.592789 0.529593
vt 0.574291 0.514935
vt 0.544149 0.556648
vt 0.396878 0.920235
vt 0.384704 0.962294
vt 0.368803 0.894565
vt 0.679518 0.685926
vt 0.452830 0.755254
vt 0.486633 0.750340
vt 0.486754 0.873811
vt 0.372771 0.451904
vt 0.341849 0.409782
vt 0.436161 0.393273
vt 0.396640 0.369764
vt 0.459778 0.331529
vt 0.363321 0.492819
vt 0.485236 0.363735
vt 0.537285 0.375729
vt 0.788327 0.873999
vt 0.803413 0.840655
vt 0.426188 0.823241
vt 0.438533 0.860109
vt 0.389599 0.776237
vt 0.094875 0.849458
vt 0.028943 0.807488
vt 0.113614 0.820626
vt 0.439353 0.713957
vt 0.415617 0.726979
vt 0.486079 0.592449
vt 0.485567 0.639331
vt 0.442881 0.662676
vt 0.489174 0.696965
vt 0.378908 0.587859
vt 0.397034 0.556637
vt 0.880977 0.763154
vt 0.877532 0.883602
vt 0.975362 0.637126
vt 0.965948 0.640477
vt 0.969553 0.552119
vt 0.905325 0.137575
vt 0.860659 0.140700
vt 0.920505 0.088352
vt 0.891777 0.061936
vt 0.485868 0.926865
vt 0.451602 0.927134
vt 0.462956 0.895890
vt 0.937992 0.784462
vt 0.029823 0.888125
vt 0.065412 0.895067
vt 0.048546 0.939390
vt 0.893584 0.030346
vt 0.911889 0.029546
vt 0.577011 0.752053
vt 0.640622 0.774702
vt 0.940148 0.279913
vt 0.935233 0.305673
vt 0.931741 0.287235
vt 0.561081 0.817760
vt 0.529865 0.842500
vt 0.546778 0.770334
vt 0.633574 0.859182
vt 0.582750 0.869206
vt 0.572118 0.798665
vt 0.927384 0.501124
vt 0.899078 0.497332
vt 0.918748 0.382205
vt 0.801270 0.510914
vt 0.793191 0.441050
vt 0.187896 0.498312
vt 0.052267 0.437636
vt 0.957647 0.259397
vt 0.190829 0.178119
vt 0.304007 0.135045
vt 0.238855 0.296529
vt 0.072793 0.261816
vt 0.063467 0.144023
vt 0.296464 0.877473
vt 0.309398 0.534195
vt 0.190149 0.535410
vt 0.052087 0.391965
vt 0.033669 0.357883
vt 0.066291 0.369203
vt 0.177897 0.873021
vt 0.147957 0.883940
vt 0.144612 0.762466
vt 0.344909 0.122261
vt 0.381526 0.070099
vt 0.426466 0.292626
vt 0.729132 0.139718
vt 0.725103 0.187654
vt 0.692907 0.132730
vt 0.687681 0.762370
vt 0.685298 0.857428
vt 0.671827 0.749148
vt 0.394584 0.885997
vt 0.585219 0.467286
vt 0.648507 0.613368
vt 0.637264 0.643973
vt 0.669874 0.867520
vt 0.208257 0.674088
vt 0.387621 0.521731
vt 0.466306 0.528396
vt 0.428327 0.328490
vt 0.535910 0.482789
vt 0.720853 0.273791
vt 0.703310 0.240062
vt 0.728178 0.233263
vt 0.703044 0.784349
vt 0.908508 0.927713
vt 0.951817 0.859317
vt 0.955888 0.944673
vt 0.426527 0.759310
vt 0.435463 0.792265
vt 0.738439 0.842305
vt 0.748557 0.868712
vt 0.800544 0.662311
vt 0.862763 0.767982
vt 0.875687 0.327715
vt 0.734402 0.497511
vt 0.894247 0.684372
vt 0.842192 0.692592
vt 0.846756 0.645558
vt 0.690889 0.248110
vt 0.695347 0.292819
vt 0.673342 0.292210
vt 0.513217 0.942400
vt 0.518200 0.908247
vt 0.531094 0.942813
vt 0.317918 0.399925
vt 0.312765 0.427031
vt 0.827028 0.493945
vt 0.850518 0.485350
vt 0.848256 0.516133
vt 0.242116 0.054049
vt 0.260855 0.250845
vt 0.290348 0.184264
vt 0.301926 0.228206
vt 0.656266 0.250863
vt 0.659406 0.232421
vt 0.208338 0.853180
vt 0.204902 0.817771
vt 0.211648 0.469178
vt 0.312748 0.626755
vt 0.313431 0.662361
vt 0.312571 0.709653
vt 0.861468 0.305007
vt 0.854686 0.284268
vt 0.874472 0.279716
vt 0.737313 0.089502
vt 0.735002 0.032106
vt 0.590246 0.326515
vt 0.586152 0.370323
vt 0.947015 0.610675
vt 0.922489 0.557151
vt 0.953721 0.559668
vt 0.354978 0.378743
vt 0.807935 0.623530
vt 0.441264 0.950657
vt 0.433374 0.926621
vt 0.446734 0.929940
vt 0.493385 0.822477
vt 0.499355 0.795461
vt 0.506560 0.824832
vt 0.644274 0.240972
vt 0.648002 0.286474
vt 0.627789 0.290766
vt 0.303419 0.907784
vt 0.277403 0.921116
vt 0.274590 0.887201
vt 0.963694 0.749588
vt 0.870012 0.462345
vt 0.845032 0.461724
vt 0.117427 0.955869
vt 0.076010 0.920879
vt 0.117607 0.909332
vt 0.626265 0.900035
vt 0.646599 0.891193
vt 0.646126 0.931492
vt 0.793622 0.301103
vt 0.788012 0.235416
vt 0.801275 0.235298
vt 0.958479 0.447124
vt 0.962777 0.517787
vt 0.946239 0.517737
vt 0.140449 0.361654
vt 0.051938 0.718488
vt 0.115164 0.576950
vt 0.624719 0.136331
vt 0.337782 0.816383
vt 0.337242 0.784403
vt 0.777464 0.932824
vt 0.764562 0.943050
vt 0.755930 0.903662
vt 0.775629 0.893067
vt 0.947220 0.241262
vt 0.937932 0.261338
vt 0.858491 0.256556
vt 0.825758 0.758779
vt 0.317842 0.355128
vt 0.222179 0.890874
vt 0.222274 0.960680
vt 0.206722 0.959304
vt 0.409615 0.887933
vt 0.425281 0.885637
vt 0.426302 0.957718
vt 0.205935 0.890441
vt 0.943253 0.446867
vn 0.0973 0.4527 0.8863
vn -0.0788 -0.9952 -0.0579
vn 0.2088 -0.9410 0.2662
vn 0.0079 -0.9981 -0.0611
vn -0.6299 0.7417 -0.2304
vn 0.5616 0.5382 0.6285
vn 0.0007 0.6846 -0.7289
vn 0.0598 -0.9961 -0.0646
vn -0.1232 -0.9871 -0.1023
vn -0.0635 -0.9960 0.0634
vn 0.1019 -0.9945 -0.0241
vn 0.6643 0.7475 -0.0022
vn -0.7212 0.6890 0.0722
vn -0.4188 0.5318 -0.7360
vn 0.5798 0.3505 0.7355
vn -0.5589 0.5270 -0.6403
vn -0.0324 -0.9670 -0.2529
vn 0.6616 -0.7237 0.1964
vn -0.1315 -0.9911 -0.0184
vn 0.8217 0.5263 0.2186
vn 0.6079 0.6433 -0.4655
vn 0.7486 0.5879 -0.3068
vn -0.7165 0.5861 -0.3784
vn 0.2710 0.8866 0.3747
vn 0.1472 -0.9346 0.3239
vn 0.2117 -0.9720 -0.1022
vn -0.8241 0.4447 0.3508
vn 0.1230 0.4135 0.9022
vn 0.7919 0.4637 -0.3973
vn -0.6239 0.4481 -0.6403
vn 0.0969 0.3555 0.9296
vn 0.2690 -0.9080 0.3211
vn -0.1849 0.3428 0.9211
vn 0.8159 0.3848 -0.4315
vn -0.3867 0.4913 0.7804
vn -0.4141 0.6358 0.6514
vn -0.0989 0.5358 -0.8385
vn -0.9160 -0.1879 -0.3544
vn 0.2639 -0.9577 -0.1146
vn 0.0643 -0.9971 0.0413
vn 0.3082 0.8067 0.5042
vn -0.1339 0.5419 -0.8297
vn -0.1639 0.8610 0.4816
vn 0.6893 0.5759 0.4396
vn 0.6553 0.7549 -0.0267
vn 0.6583 0.7519 -0.0361
vn 0.0819 -0.9916 -0.0999
vn -0.1966 -0.9792 0.0509
vn -0.0527 -0.9975 0.0472
vn -0.0030 -0.9824 0.1865
vn 0.0604 -0.9917 -0.1138
vn -0.0718 -0.9867 0.1456
vn -0.1298 -0.9892 -0.0684
vn -0.0792 -0.9966 0.0243
vn 0.6829 0.7054 0.1900
vn 0.1667 0.4800 0.8613
vn 0.2433 0.7254 -0.6439
vn 0.7341 0.6753 0.0713
vn -0.5113 0.7451 -0.4283
vn 0.3123 0.8051 0.5043
vn -0.1582 0.7775 -0.6087
vn -0.3345 0.6394 0.6923
vn -0.7256 0.6845 0.0706
vn 0.5325 0.7031 -0.4712
vn -0.6527 0.7483 -0.1185
vn 0.6670 0.7206 0.1893
vn 0.4645 -0.8086 0.3610
vn -0.1068 -0.9735 0.2025
vn -0.1266 -0.9892 0.0738
vn 0.1233 -0.9348 -0.3332
vn -0.2227 -0.9653 0.1361
vn 0.7357 -0.6326 0.2420
vn -0.0754 -0.9968 0.0263
vn -0.2225 -0.8966 -0.3828
vn -0.6654 0.7464 -0.0128
vn -0.2202 -0.4233 0.8788
vn -0.0535 0.5271 -0.8481
vn -0.2133 -0.9768 -0.0204
vn 0.0016 -0.9638 -0.2668
vn 0.3036 -0.9260 0.2242
vn -0.2092 -0.9770 0.0409
vn -0.1389 -0.9866 0.0852
vn -0.1176 -0.9726 -0.2006
vn -0.1500 -0.9846 -0.0895
vn 0.5434 0.4318 0.7199
vn 0.7201 0.6240 0.3034
vn -0.4169 0.4553 -0.7867
vn -0.0559 0.5390 -0.8404
vn 0.0769 0.4137 -0.9072
vn -0.8225 0.4428 0.3569
vn 0.6586 0.5379 -0.5263
vn -0.6997 0.4821 0.5273
vn 0.4594 0.5431 -0.7029
vn 0.0070 -0.9887 -0.1496
vn -0.0238 -0.4918 0.8704
vn -0.0434 -0.9252 -0.3769
vn 0.2313 -0.9725 -0.0261
vn -0.3301 -0.9348 0.1310
vn 0.1276 -0.9828 -0.1336
vn -0.1487 -0.9253 -0.3488
vn -0.1960 -0.9251 0.3253
vn 0.0732 0.4255 -0.9020
vn 0.6241 0.4760 0.6197
vn -0.2255 0.5598 -0.7974
vn -0.6236 0.7448 -0.2376
vn -0.8942 0.3537 -0.2746
vn -0.1372 -0.9901 0.0292
vn 0.0127 -0.9982 0.0583
vn 0.0576 -0.9983 0.0033
vn -0.1198 -0.9927 0.0132
vn 0.0486 -0.9988 -0.0060
vn 0.5287 0.5312 -0.6620
vn -0.1985 0.5498 0.8114
vn -0.4079 0.7488 -0.5224
vn -0.7990 0.5421 -0.2603
vn 0.7533 0.5745 -0.3202
vn -0.0429 0.6760 0.7357
vn -0.0409 -0.9972 -0.0630
vn 0.2222 -0.9709 0.0893
vn -0.0573 -0.9973 0.0465
vn 0.0161 -0.9917 0.1277
vn 0.0223 -0.9991 -0.0368
vn -0.0337 -0.9955 -0.0891
vn -0.3205 0.0069 0.9472
vn 0.4714 0.6557 -0.5899
vn -0.3038 0.8699 0.3886
vn 0.2751 0.8213 0.4999
vn 0.6623 0.6286 0.4077
vn -0.8206 0.1720 0.5450
vn -0.5466 0.7244 -0.4200
vn -0.3206 0.7354 -0.5969
vn 0.5095 0.6982 -0.5029
vn -0.8753 0.2810 0.3937
vn 0.0557 0.7479 -0.6615
vn 0.1565 -0.9864 0.0503
vn 0.3500 -0.9275 -0.1313
vn -0.0151 -0.9995 -0.0277
vn -0.0198 -0.9998 -0.0068
vn -0.9624 0.0360 -0.2693
vn -0.3961 0.6939 -0.6013
vn -0.2662 0.5461 -0.7943
vn -0.2072 0.7116 0.6713
vn -0.4850 0.8499 0.2060
vn 0.4634 0.4665 -0.7534
vn 0.8409 0.5293 0.1127
vn -0.2087 -0.9770 0.0429
vn 0.0647 -0.9578 0.2799
vn 0.4870 -0.5904 0.6436
vn -0.0291 0.6733 0.7388
vn -0.1492 -0.9598 0.2377
vn 0.0048 -0.9321 -0.3621
vn 0.5657 0.3387 0.7519
vn 0.5927 0.7225 -0.3559
vn -0.5584 0.3772 -0.7389
vn -0.9707 -0.2234 -0.0882
vn -0.1545 0.1225 -0.9804
vn -0.7297 0.3302 0.5987
vn -0.7877 0.2025 0.5819
vn 0.0658 -0.9967 0.0473
vn -0.0276 -0.9947 -0.0986
vn 0.1726 -0.9834 0.0561
vn 0.0204 -0.9993 -0.0300
vn -0.8306 0.0617 0.5535
vn 0.0661 0.6540 -0.7536
vn 0.0798 0.7769 0.6246
vn -0.3422 -0.1398 -0.9292
vn 0.4991 -0.1074 -0.8599
vn 0.7383 -0.1586 -0.6555
vn -0.6836 -0.5257 0.5063
vn 0.9910 -0.1097 0.0762
vn -0.8834 0.0893 -0.4601
vn 0.4429 0.6814 0.5827
vn 0.1710 -0.9602 -0.2209
vn -0.1320 -0.9882 0.0776
vn -0.1285 -0.9518 -0.2786
vn 0.9213 0.1881 0.3403
vn -0.4332 0.4311 -0.7915
vn 0.9120 0.2742 -0.3050
vn -0.8632 0.4989 0.0778
vn -0.4293 -0.1870 0.8836
vn 0.3588 0.8130 0.4585
vn 0.2466 -0.9546 -0.1669
vn -0.1673 -0.9692 -0.1809
vn 0.3059 0.6534 -0.6925
vn -0.7112 0.5477 0.4407
vn -0.8279 0.3632 0.4273
vn 0.3695 0.4742 0.7991
vn 0.9985 -0.0477 -0.0280
vn -0.5660 -0.2042 -0.7987
vn 0.1029 -0.9793 -0.1740
vn -0.0063 -0.9993 -0.0375
vn -0.6226 0.7595 0.1886
vn -0.2252 -0.9724 -0.0616
vn -0.7856 -0.1153 0.6079
vn 0.6832 0.7157 0.1450
vn 0.4482 0.5669 -0.6912
vn 0.0928 -0.9929 0.0742
vn 0.0749 -0.9874 0.1397
vn -0.1543 -0.9880 -0.0113
vn 0.2964 0.0311 0.9546
vn -0.1919 0.7736 0.6039
vn 0.1744 0.6538 0.7363
vn -0.7675 0.5278 0.3638
vn -0.6302 0.5330 -0.5646
vn 0.2140 -0.9692 0.1216
vn 0.9630 0.2671 -0.0357
vn 0.0054 -0.9998 -0.0198
vn -0.2394 -0.2218 0.9452
vn 0.4740 0.1461 0.8683
vn 0.2369 0.0898 -0.9674
vn -0.3478 -0.1587 0.9240
vn -0.9946 -0.0916 0.0487
usemtl _8_tree
s off
f 24/1/1 12/2/1 23/3/1
f 113/4/2 109/5/2 9/6/2
f 24/7/3 20/8/3 17/9/3
f 20/8/4 113/4/4 8/10/4
f 27/11/5 11/12/5 4/13/5
f 20/14/6 29/15/6 17/16/6
f 10/17/7 26/18/7 9/19/7
f 38/20/8 34/21/8 39/22/8
f 27/23/9 32/24/9 11/25/9
f 28/26/10 33/27/10 27/23/10
f 36/28/11 29/29/11 26/30/11
f 50/31/12 44/32/12 30/33/12
f 57/34/13 47/35/13 51/36/13
f 56/37/14 52/38/14 46/39/14
f 44/32/15 58/40/15 49/41/15
f 56/37/16 46/39/16 47/35/16
f 56/42/17 64/43/17 45/44/17
f 62/45/18 58/46/18 55/47/18
f 59/48/19 73/49/19 62/45/19
f 76/50/20 69/51/20 72/52/20
f 69/53/21 77/54/21 70/55/21
f 70/56/22 62/57/22 63/58/22
f 78/59/23 75/60/23 74/61/23
f 76/50/24 72/52/24 68/62/24
f 91/63/25 71/64/25 69/65/25
f 70/66/26 81/67/26 94/68/26
f 100/69/27 83/70/27 90/71/27
f 95/72/28 90/73/28 93/74/28
f 99/75/29 94/76/29 81/77/29
f 85/78/30 100/79/30 84/80/30
f 90/81/31 91/82/31 93/83/31
f 107/84/32 95/85/32 99/86/32
f 103/87/33 102/88/33 104/89/33
f 97/90/34 103/91/34 107/92/34
f 104/89/35 102/88/35 106/93/35
f 21/94/36 23/3/36 28/95/36
f 13/96/37 4/13/37 11/12/37
f 19/97/38 4/98/38 14/99/38
f 14/100/39 13/101/39 18/102/39
f 9/6/40 109/5/40 2/103/40
f 22/104/41 24/105/41 23/106/41
f 9/107/42 2/108/42 10/109/42
f 6/110/43 23/3/43 21/94/43
f 17/16/44 29/15/44 12/111/44
f 8/112/45 26/113/45 20/14/45
f 29/15/46 20/14/46 26/113/46
f 35/114/47 41/115/47 33/27/47
f 54/116/48 36/28/48 43/117/48
f 11/25/49 32/24/49 39/22/49
f 42/118/50 53/119/50 35/114/50
f 39/22/51 34/21/51 26/30/51
f 33/27/52 28/26/52 35/114/52
f 33/27/53 32/24/53 27/23/53
f 30/120/54 43/117/54 36/28/54
f 30/33/55 44/32/55 43/121/55
f 57/122/56 51/123/56 48/124/56
f 31/125/57 52/126/57 45/127/57
f 50/31/58 55/128/58 44/32/58
f 46/39/59 39/129/59 47/35/59
f 53/130/60 42/131/60 44/32/60
f 52/38/61 38/132/61 46/39/61
f 51/133/62 41/134/62 49/135/62
f 33/136/63 51/36/63 47/35/63
f 37/137/64 31/138/64 45/139/64
f 47/35/65 57/34/65 56/37/65
f 55/128/66 58/40/66 44/32/66
f 73/140/67 67/141/67 58/46/67
f 57/142/68 58/46/68 61/143/68
f 58/46/69 67/141/69 61/143/69
f 64/43/70 62/45/70 45/44/70
f 61/143/71 65/144/71 57/142/71
f 62/45/72 73/49/72 58/46/72
f 59/48/73 72/145/73 73/49/73
f 60/146/74 74/147/74 64/43/74
f 66/148/75 78/59/75 65/149/75
f 73/150/76 72/151/76 79/152/76
f 74/153/77 70/154/77 64/155/77
f 70/66/78 84/156/78 92/157/78
f 92/157/79 81/67/79 70/66/79
f 91/63/80 86/158/80 71/64/80
f 71/64/81 86/158/81 83/159/81
f 75/160/82 83/159/82 85/161/82
f 75/160/83 85/161/83 84/156/83
f 91/63/84 82/162/84 87/163/84
f 94/164/85 99/165/85 95/72/85
f 93/74/86 94/164/86 95/72/86
f 100/166/87 98/167/87 84/168/87
f 81/169/88 92/170/88 89/171/88
f 89/171/89 92/170/89 88/172/89
f 86/173/90 90/174/90 83/175/90
f 81/77/91 89/176/91 99/75/91
f 85/177/92 83/178/92 100/179/92
f 98/180/93 99/181/93 88/172/93
f 99/86/94 97/182/94 101/183/94
f 99/184/95 101/185/95 107/186/95
f 100/187/96 96/188/96 105/189/96
f 107/84/97 106/190/97 95/85/97
f 95/85/98 106/190/98 102/191/98
f 99/86/99 98/192/99 97/182/99
f 98/192/100 105/189/100 97/182/100
f 95/85/101 102/191/101 96/188/101
f 97/193/102 105/194/102 103/195/102
f 106/196/103 107/92/103 104/197/103
f 10/198/104 13/96/104 11/12/104
f 27/11/105 4/13/105 25/199/105
f 25/200/106 4/98/106 19/97/106
f 112/201/107 24/7/107 22/202/107
f 19/203/108 14/100/108 18/102/108
f 18/102/109 3/204/109 109/5/109
f 109/5/110 3/204/110 2/103/110
f 1/205/111 113/4/111 9/6/111
f 10/109/112 2/108/112 3/206/112
f 24/1/113 7/207/113 12/2/113
f 10/198/114 3/208/114 13/96/114
f 5/209/115 6/210/115 21/211/115
f 1/212/116 9/213/116 26/214/116
f 23/3/117 12/2/117 28/95/117
f 31/215/118 37/216/118 34/21/118
f 29/29/119 36/28/119 54/116/119
f 39/22/120 32/24/120 40/217/120
f 35/114/121 28/26/121 29/29/121
f 26/30/122 11/25/122 39/22/122
f 37/216/123 26/30/123 34/21/123
f 35/218/124 53/219/124 49/220/124
f 55/221/125 50/222/125 45/223/125
f 51/133/126 49/135/126 48/224/126
f 49/41/127 53/130/127 44/32/127
f 44/32/128 42/131/128 54/225/128
f 47/35/129 40/226/129 32/227/129
f 39/129/130 40/226/130 47/35/130
f 38/132/131 39/129/131 46/39/131
f 50/222/132 37/228/132 45/223/132
f 57/122/133 48/124/133 49/220/133
f 52/126/134 56/229/134 45/127/134
f 72/145/135 59/48/135 68/230/135
f 59/48/136 62/45/136 77/231/136
f 65/144/137 61/143/137 66/232/137
f 62/45/138 64/43/138 63/233/138
f 74/234/139 60/235/139 78/236/139
f 75/60/140 70/237/140 74/61/140
f 64/238/141 70/239/141 63/240/141
f 80/241/142 67/242/142 79/152/142
f 78/243/143 66/148/143 79/244/143
f 62/57/144 70/56/144 77/245/144
f 76/50/145 77/245/145 69/51/145
f 83/159/146 75/160/146 71/64/146
f 91/63/147 69/65/147 82/162/147
f 93/74/148 82/246/148 94/164/148
f 91/82/149 87/247/149 93/83/149
f 100/187/150 95/85/150 96/188/150
f 98/192/151 100/187/151 105/189/151
f 104/197/152 107/92/152 103/91/152
f 97/90/153 107/92/153 101/248/153
f 105/249/154 96/250/154 103/251/154
f 5/252/155 15/253/155 6/254/155
f 4/255/156 13/256/156 14/257/156
f 16/258/157 22/259/157 23/3/157
f 25/260/158 19/261/158 5/262/158
f 7/263/159 24/7/159 17/9/159
f 5/264/160 16/265/160 15/266/160
f 16/265/161 112/201/161 22/202/161
f 8/10/162 113/4/162 1/205/162
f 5/252/163 21/267/163 25/268/163
f 11/269/164 26/270/164 10/109/164
f 29/271/165 28/95/165 12/2/165
f 31/272/166 34/273/166 52/126/166
f 34/273/167 38/274/167 52/126/167
f 30/275/168 36/276/168 50/277/168
f 41/278/169 51/123/169 33/279/169
f 37/280/170 50/31/170 36/281/170
f 33/282/171 47/283/171 32/284/171
f 44/32/172 54/225/172 43/121/172
f 62/45/173 55/47/173 45/44/173
f 67/141/174 80/285/174 61/143/174
f 56/42/175 60/146/175 64/43/175
f 77/245/176 76/50/176 59/286/176
f 65/287/177 78/288/177 60/289/177
f 59/286/178 76/50/178 68/62/178
f 61/290/179 80/291/179 79/292/179
f 66/293/180 61/294/180 79/295/180
f 67/296/181 73/297/181 79/298/181
f 70/66/182 94/68/182 69/65/182
f 70/66/183 75/160/183 84/156/183
f 99/75/184 89/176/184 88/299/184
f 95/300/185 100/301/185 90/81/185
f 102/302/186 103/303/186 96/304/186
f 91/305/187 90/306/187 86/307/187
f 113/308/188 111/309/188 110/310/188
f 109/311/189 110/312/189 108/313/189
f 112/201/190 18/102/190 109/5/190
f 19/203/191 18/102/191 112/201/191 16/265/191
f 27/11/192 25/199/192 21/211/192 28/314/192
f 13/101/193 3/204/193 18/102/193
f 5/264/194 19/203/194 16/265/194
f 7/315/195 17/16/195 12/111/195
f 8/112/196 1/316/196 26/113/196
f 42/118/197 35/114/197 29/29/197 54/116/197
f 37/216/198 36/28/198 26/30/198
f 60/146/199 56/42/199 57/142/199 65/144/199
f 41/278/200 35/218/200 49/220/200
f 49/220/201 58/317/201 57/122/201
f 72/151/202 69/318/202 71/319/202 79/152/202
f 71/320/203 75/321/203 78/322/203 79/323/203
f 98/324/204 88/325/204 92/326/204 84/80/204
f 69/65/205 94/68/205 82/162/205
f 87/327/206 82/246/206 93/74/206
f 24/7/207 112/201/207 113/4/207 20/8/207
f 16/258/208 23/3/208 6/110/208 15/328/208
f 111/329/209 113/330/209 112/331/209
f 109/332/210 113/333/210 110/334/210
f 111/329/211 112/331/211 108/335/211
f 108/313/212 112/336/212 109/311/212
